<?xml version="1.0" standalone="no"?>
<!DOCTYPE svg PUBLIC "-//W3C//DTD SVG 20010904//EN"
 "http://www.w3.org/TR/2001/REC-SVG-20010904/DTD/svg10.dtd">
<svg version="1.0" xmlns="http://www.w3.org/2000/svg"
 width="500.000000pt" height="500.000000pt" viewBox="0 0 500.000000 500.000000"
 preserveAspectRatio="xMidYMid meet">
<metadata>
Created by potrace 1.11, written by Peter Selinger 2001-2013
</metadata>
<g transform="translate(0.000000,500.000000) scale(0.100000,-0.100000)"
fill="#000000" stroke="none">
<path d="M2152 4723 c1 -16 7 -31 12 -35 13 -9 11 -364 -1 -381 -6 -6 -11 -36
-12 -66 -1 -30 -6 -60 -12 -67 -6 -7 -9 -18 -8 -26 4 -32 -1 -49 -13 -42 -10
6 -10 5 -1 -8 11 -12 9 -18 -7 -33 -13 -12 -18 -26 -15 -43 2 -13 -2 -31 -10
-38 -8 -8 -12 -23 -10 -34 2 -11 -1 -20 -6 -20 -6 0 -8 -4 -4 -9 3 -5 1 -12
-5 -16 -6 -4 -8 -11 -5 -16 4 -5 1 -9 -6 -9 -10 0 -10 -3 -1 -12 8 -8 6 -15
-9 -29 -11 -9 -22 -27 -24 -39 -2 -12 -9 -28 -15 -36 -7 -7 -9 -17 -6 -23 3
-5 -1 -12 -10 -15 -8 -3 -13 -10 -10 -15 3 -5 -1 -12 -10 -15 -8 -3 -13 -10
-9 -16 3 -5 -3 -20 -15 -32 -11 -12 -18 -28 -16 -35 3 -7 1 -13 -3 -13 -5 0
-21 -20 -36 -45 -15 -27 -31 -43 -37 -39 -7 4 -8 2 -4 -5 8 -12 -121 -148
-136 -144 -4 2 -19 -9 -34 -22 -15 -14 -34 -23 -42 -20 -11 4 -12 2 -4 -8 9
-11 2 -12 -39 -7 -28 4 -55 13 -60 21 -5 8 -9 10 -9 4 0 -5 -10 5 -21 23 -12
17 -25 32 -31 32 -5 0 -6 5 -3 10 3 6 2 10 -2 10 -5 0 -14 9 -21 21 -11 17
-11 20 0 13 7 -4 5 2 -5 13 -9 11 -16 22 -15 24 2 2 -3 -2 -9 -10 -7 -8 -13
-11 -13 -6 0 5 -6 0 -14 -11 -9 -12 -11 -21 -4 -25 5 -4 2 -13 -8 -24 -20 -20
-26 -55 -10 -55 6 0 3 -7 -8 -15 -10 -7 -15 -18 -11 -24 3 -6 0 -11 -7 -11
-10 0 -10 -2 1 -9 10 -7 10 -10 1 -13 -7 -2 -14 -16 -14 -32 -1 -15 -6 -30
-11 -34 -6 -4 -11 -18 -12 -32 -1 -14 -4 -36 -8 -50 -3 -14 -7 -38 -8 -55 -1
-16 -6 -33 -12 -37 -6 -5 -5 -8 4 -8 8 0 4 -8 -10 -21 -13 -11 -18 -17 -10
-13 9 5 12 2 7 -7 -3 -8 -9 -22 -12 -31 -4 -10 -13 -18 -21 -18 -8 0 -12 -4
-9 -9 3 -5 -8 -22 -24 -39 -18 -20 -25 -32 -17 -36 7 -2 6 -5 -4 -5 -9 -1 -22
-12 -29 -26 -7 -14 -17 -25 -22 -25 -5 0 -6 -4 -3 -10 3 -5 -5 -21 -19 -35
-14 -14 -33 -42 -42 -62 -10 -21 -21 -40 -25 -43 -3 -3 -12 -22 -20 -42 -7
-21 -17 -38 -22 -38 -5 0 -7 -7 -3 -15 3 -9 0 -15 -8 -15 -9 0 -12 -7 -9 -19
3 -11 -2 -21 -12 -24 -13 -6 -14 -11 -4 -28 6 -13 7 -19 1 -15 -10 6 -28 -30
-24 -46 1 -5 -3 -8 -9 -8 -6 0 -9 -9 -6 -19 3 -11 -3 -28 -13 -38 -11 -12 -14
-26 -10 -38 4 -11 2 -32 -6 -46 -7 -15 -10 -29 -7 -33 4 -3 2 -6 -4 -6 -5 0
-10 -7 -10 -15 0 -8 5 -15 11 -15 6 0 4 -4 -4 -9 -8 -6 -18 -7 -22 -5 -10 7
-10 16 -12 -304 l-1 -273 22 -5 c18 -5 20 -10 13 -30 -6 -16 -6 -24 1 -24 6 0
8 -4 4 -9 -3 -5 -1 -12 5 -16 6 -4 8 -11 5 -16 -4 -5 -2 -9 3 -9 5 0 8 -13 6
-30 -2 -16 3 -35 10 -43 9 -8 11 -19 6 -27 -5 -8 -1 -19 11 -29 11 -9 21 -29
23 -46 1 -16 7 -29 13 -28 5 1 10 -10 9 -25 -1 -15 7 -36 17 -46 15 -18 19
-30 16 -53 0 -3 6 -10 15 -15 9 -5 14 -13 11 -18 -3 -4 2 -11 11 -14 8 -3 12
-11 8 -17 -3 -6 -2 -14 4 -18 6 -3 12 -13 14 -21 2 -8 10 -22 19 -30 8 -8 18
-23 22 -33 4 -10 11 -16 16 -13 5 3 7 -4 3 -16 -3 -11 -1 -19 4 -16 10 6 27
-11 32 -30 1 -7 16 -26 32 -42 17 -16 30 -34 30 -40 0 -6 5 -8 10 -5 6 3 10
-1 10 -10 0 -10 5 -13 12 -9 6 4 8 3 5 -3 -9 -14 48 -73 69 -73 14 0 14 -3 4
-16 -11 -12 -11 -15 1 -12 8 2 13 -3 12 -9 -2 -7 5 -13 15 -13 21 0 52 -29 52
-48 0 -7 6 -12 13 -12 7 0 22 -8 33 -18 10 -10 27 -21 37 -25 11 -4 15 -12 11
-18 -4 -8 -3 -9 4 -5 7 4 12 2 12 -4 0 -6 4 -9 9 -6 5 3 12 -1 15 -10 4 -9 13
-14 21 -10 9 3 15 0 15 -9 0 -8 8 -15 19 -15 10 0 21 -9 24 -20 3 -13 10 -18
21 -14 9 4 16 1 16 -6 0 -7 7 -10 15 -6 10 3 19 -1 23 -12 4 -9 18 -18 32 -20
14 -1 27 -7 28 -12 2 -6 10 -10 19 -10 8 0 21 -7 30 -15 8 -8 19 -13 24 -10 5
4 9 2 9 -4 0 -5 9 -8 19 -6 11 2 22 -3 25 -11 3 -9 10 -13 14 -10 5 3 25 -3
44 -14 20 -10 39 -16 42 -12 4 3 11 0 15 -7 5 -8 28 -14 55 -15 28 0 46 -5 46
-12 0 -8 11 -11 31 -7 22 3 34 -1 44 -14 7 -10 11 -22 8 -27 -4 -5 -1 -6 5 -2
13 8 529 9 542 1 5 -3 11 -1 15 5 4 6 11 8 16 4 6 -3 17 3 25 15 9 13 23 19
37 17 12 -1 28 3 36 11 11 12 15 12 22 1 6 -8 9 -9 9 -1 0 6 8 10 18 8 9 -1
26 2 37 8 11 6 28 12 38 13 9 1 22 2 28 3 5 0 7 6 4 11 -3 6 2 10 12 10 11 0
25 6 32 13 11 10 12 9 6 -3 -6 -10 -1 -8 13 4 12 11 22 16 22 11 0 -4 6 -2 13
4 8 6 17 8 21 3 4 -4 12 0 16 9 6 11 18 15 35 11 20 -3 24 -1 19 12 -3 9 -1
17 5 17 34 4 131 51 125 61 -3 4 0 8 6 8 6 0 8 5 4 12 -4 6 -3 8 3 5 13 -8 73
21 73 34 0 6 4 8 8 5 5 -3 19 6 31 20 12 14 27 22 33 18 6 -4 9 -3 6 2 -3 5 3
17 14 27 10 9 18 12 18 7 0 -6 6 -5 14 2 8 7 13 15 12 18 -2 3 5 13 16 23 10
9 18 14 18 11 0 -3 14 10 32 30 17 19 35 33 40 30 4 -3 8 0 8 6 0 6 12 22 26
35 15 14 21 25 15 25 -7 0 -9 5 -6 10 4 6 10 8 15 5 5 -3 17 8 26 24 10 17 21
28 26 25 7 -5 13 18 9 39 -1 5 2 7 6 4 10 -5 43 29 36 37 -4 3 -1 6 5 6 7 0
12 9 12 21 0 11 5 17 10 14 6 -3 10 -2 10 3 0 4 9 18 21 30 11 12 18 26 15 31
-3 5 1 12 10 15 9 4 14 13 10 22 -3 8 -2 13 3 10 8 -5 22 27 18 39 -1 2 6 10
17 18 10 7 19 26 19 40 0 15 3 24 8 21 5 -3 9 2 9 11 0 10 5 13 13 9 9 -6 9
-4 -1 8 -10 13 -10 18 1 29 7 8 14 17 15 22 9 40 16 57 24 57 6 0 8 9 5 19 -2
11 4 32 14 47 11 18 15 33 9 43 -5 9 -2 23 7 38 8 12 13 29 10 38 -4 8 -2 17
3 20 5 3 7 12 3 20 -4 11 -1 13 11 9 9 -3 17 -2 17 2 1 5 2 143 3 307 1 245
-2 301 -13 310 -8 7 -16 11 -18 10 -12 -9 -13 0 -2 14 16 18 16 23 -1 33 -6 4
-12 17 -13 28 -1 12 -6 22 -12 22 -5 0 -4 4 4 9 9 6 10 11 3 15 -6 4 -9 13 -6
20 3 8 0 17 -5 21 -6 3 -9 11 -6 16 4 5 2 9 -3 9 -6 0 -8 10 -5 21 4 14 0 26
-10 34 -9 6 -17 24 -19 41 -2 16 -10 34 -18 41 -13 11 -13 12 0 13 12 0 12 2
2 9 -8 4 -13 10 -12 12 5 10 -25 95 -36 105 -8 6 -11 14 -7 17 3 4 0 7 -8 7
-11 0 -11 2 1 10 8 5 10 10 3 10 -6 0 -9 9 -5 22 3 14 2 19 -6 14 -11 -6 -18
19 -13 47 0 4 -4 6 -10 5 -6 -2 -12 12 -14 30 -1 18 -9 41 -16 50 -24 30 -39
61 -39 82 0 11 -4 20 -10 20 -5 0 -10 11 -10 24 0 14 -8 32 -17 42 -10 9 -18
24 -19 32 -2 8 -7 19 -13 25 -6 6 -11 22 -11 35 0 13 -4 21 -9 17 -6 -3 -8 4
-6 15 2 12 -1 20 -10 20 -7 0 -16 7 -19 16 -4 10 -2 13 7 8 6 -4 2 3 -11 16
-13 12 -21 28 -18 36 3 8 1 14 -5 14 -6 0 -9 7 -5 15 3 9 0 15 -10 15 -8 0
-13 4 -10 9 3 5 -3 20 -14 34 -11 14 -20 30 -20 36 0 5 -7 14 -16 19 -12 6
-13 11 -5 16 8 5 5 13 -8 24 -11 9 -21 23 -23 31 -5 21 -42 58 -53 52 -5 -3
-4 2 2 10 10 13 9 20 -7 37 -11 12 -20 25 -20 30 0 4 -10 19 -22 32 -13 14
-22 28 -20 32 4 13 -50 68 -60 62 -6 -4 -5 3 1 15 10 17 9 21 -4 21 -13 0 -16
5 -15 26 1 3 -13 18 -30 34 -16 15 -30 32 -30 38 0 5 -13 23 -29 40 -16 16
-27 33 -24 36 3 3 -2 8 -11 12 -9 3 -14 10 -11 14 3 5 0 12 -6 16 -20 12 -28
-18 -12 -43 12 -19 13 -23 2 -23 -9 0 -10 -3 -4 -8 14 -9 15 -112 1 -112 -7 0
-8 -3 -1 -8 12 -9 13 -35 1 -44 -5 -3 -9 -20 -8 -37 0 -22 -4 -31 -15 -31 -9
0 -14 -3 -10 -6 6 -6 -13 -28 -47 -54 -16 -12 -18 -12 -11 -1 6 11 5 12 -6 5
-19 -12 -52 -11 -61 1 -5 6 -8 5 -8 -3 0 -8 -13 -3 -35 14 -19 14 -35 23 -35
19 0 -4 -20 14 -45 41 -25 26 -45 53 -45 61 0 7 -4 13 -10 13 -5 0 -10 7 -10
15 0 8 -4 15 -10 15 -5 0 -10 7 -10 15 0 8 -4 15 -10 15 -5 0 -9 3 -9 8 3 20
-2 32 -16 32 -8 0 -12 6 -9 14 7 17 -39 89 -50 79 -4 -4 -4 0 -1 9 4 9 1 27
-6 40 -7 13 -13 26 -14 30 0 4 -6 13 -12 20 -7 6 -13 22 -13 35 0 13 -4 23 -9
23 -9 0 -37 60 -33 73 1 4 -2 7 -8 7 -5 0 -10 7 -10 16 0 8 -3 13 -7 11 -5 -3
-9 6 -9 19 -1 14 -12 33 -24 44 -12 10 -22 22 -23 27 -1 4 -5 7 -8 6 -4 -1 -5
5 -2 15 2 9 -6 28 -19 42 -13 13 -21 26 -19 28 7 7 -23 42 -36 42 -7 0 -14 5
-14 10 -1 6 -3 15 -4 20 -1 6 -3 15 -4 20 0 6 -8 10 -16 10 -8 0 -15 4 -15 8
0 9 -52 65 -90 97 -14 12 -20 14 -15 5 4 -8 -2 -5 -14 8 -12 12 -26 22 -31 22
-6 0 -10 6 -10 14 0 9 -9 13 -24 12 -15 -2 -27 3 -31 11 -3 9 -12 13 -20 10
-8 -4 -16 2 -20 14 -4 13 -15 19 -36 19 -27 0 -30 -3 -27 -27z m956 -1925 c-3
-16 0 -31 5 -35 5 -3 4 -9 -4 -13 -10 -7 -10 -12 2 -26 12 -16 12 -17 -4 -11
-13 5 -16 3 -10 -6 13 -20 12 -208 -1 -200 -6 3 -6 0 2 -8 28 -30 3 -93 -29
-73 -5 3 -9 0 -9 -5 0 -6 -3 -10 -7 -10 -5 1 -11 0 -15 -1 -5 -1 -11 -3 -16
-4 -15 -2 -62 -44 -62 -55 0 -6 -4 -11 -9 -11 -6 0 -8 -9 -6 -20 2 -11 0 -18
-6 -15 -9 6 -10 0 -13 -62 0 -17 -4 -35 -8 -39 -4 -4 2 -15 14 -25 23 -21 43
-25 32 -7 -5 7 -3 8 7 2 19 -12 33 -12 41 1 4 5 8 1 8 -10 0 -15 2 -17 9 -6 5
7 14 10 20 7 6 -4 11 -1 12 6 0 10 2 10 6 0 2 -6 9 -10 14 -6 5 3 16 -2 25
-10 8 -9 11 -16 5 -16 -15 0 -14 -30 2 -30 7 0 4 -7 -7 -15 -18 -14 -15 -20 8
-16 5 1 4 -5 -4 -13 -10 -13 -10 -16 1 -16 12 0 12 -2 1 -9 -18 -11 -18 -12
-3 -40 7 -13 9 -21 3 -17 -5 3 -9 -5 -9 -19 0 -14 4 -22 10 -18 6 4 7 1 2 -6
-11 -19 -13 -71 -2 -78 5 -3 3 -9 -4 -13 -10 -7 -10 -12 2 -26 8 -11 9 -15 2
-10 -10 5 -11 -1 -6 -25 4 -23 3 -30 -5 -25 -7 4 -12 3 -12 -1 0 -12 -83 -10
-92 2 -5 7 -8 6 -8 -1 0 -5 -13 -9 -30 -8 -16 1 -27 -2 -24 -7 3 -5 0 -9 -6
-9 -6 0 -8 -4 -5 -10 3 -5 0 -10 -7 -10 -8 0 -9 -3 -3 -8 12 -8 13 -101 1
-120 -4 -6 -4 -12 1 -12 4 0 8 -56 8 -125 0 -104 -2 -124 -14 -120 -8 3 -18 0
-23 -7 -6 -10 -8 -10 -8 0 0 6 -5 12 -11 12 -5 0 -7 -6 -3 -12 6 -10 5 -10 -8
-1 -8 7 -18 10 -21 7 -3 -3 -12 -2 -19 2 -19 12 -39 14 -32 3 3 -5 10 -6 16
-3 7 4 8 2 4 -4 -5 -8 -15 -8 -32 -2 -33 13 -37 13 -28 -2 6 -10 4 -10 -7 -3
-8 6 -55 10 -106 9 -60 -1 -93 2 -96 10 -2 6 -3 151 -2 323 0 211 -3 309 -10
305 -5 -3 -4 1 2 10 8 9 13 47 12 104 0 49 0 91 0 94 1 3 3 55 6 115 7 146 9
161 24 179 7 8 10 20 7 25 -4 5 4 20 17 33 13 13 22 29 19 36 -2 7 1 12 7 12
6 0 11 5 11 11 0 7 10 20 23 31 12 11 22 24 22 29 0 5 3 8 7 7 3 -2 16 9 28
25 12 15 28 27 36 27 8 0 14 6 14 14 0 8 5 18 12 22 7 5 8 3 3 -6 -5 -8 5 -4
21 7 17 12 37 23 44 25 8 2 23 11 34 21 15 13 22 14 28 5 6 -10 8 -10 8 0 0 7
5 10 10 7 6 -3 10 -1 10 5 0 6 4 9 9 5 5 -3 12 -1 15 3 3 5 40 9 82 9 l76 1
-4 -30z m-725 -405 c11 -10 17 -13 13 -6 -5 9 3 11 29 9 19 -2 38 0 41 5 8 14
24 10 24 -6 0 -8 4 -15 8 -15 5 0 8 -19 8 -42 -1 -24 2 -51 7 -60 5 -12 3 -18
-5 -18 -8 0 -9 -3 -3 -8 6 -4 10 -18 10 -32 0 -14 -4 -28 -10 -32 -6 -5 -4 -8
5 -8 12 0 13 -2 1 -9 -10 -6 -11 -14 -3 -26 6 -11 6 -30 2 -47 -6 -19 -5 -28
3 -29 9 0 9 -2 1 -5 -13 -5 -7 -41 10 -63 8 -11 8 -13 -1 -7 -8 4 -13 2 -13
-4 0 -7 -6 -10 -14 -7 -8 3 -17 3 -21 -1 -4 -4 -11 -8 -16 -8 -5 -1 -10 -2
-11 -4 -2 -1 -11 -3 -20 -5 -21 -4 -48 -29 -48 -44 0 -6 -4 -11 -9 -11 -5 0
-8 -8 -7 -17 2 -10 -1 -21 -5 -24 -5 -3 -11 -35 -13 -70 -2 -36 -8 -74 -13
-85 -5 -10 -8 -29 -7 -41 0 -13 -3 -23 -8 -23 -5 0 -6 -4 -3 -10 3 -5 0 -10
-7 -10 -9 0 -9 -3 2 -10 9 -6 10 -10 3 -10 -6 0 -19 -20 -28 -45 -10 -25 -22
-42 -28 -38 -6 3 -7 1 -3 -5 4 -6 -2 -20 -14 -32 -11 -11 -17 -20 -12 -20 4
-1 -4 -7 -18 -15 -14 -8 -21 -14 -16 -15 15 0 -67 -62 -96 -72 -16 -6 -28 -14
-28 -20 0 -5 -5 -6 -11 -2 -6 3 -14 2 -18 -5 -4 -6 -20 -12 -37 -13 -16 -1
-35 -6 -43 -12 -11 -8 -13 -8 -7 1 5 9 2 11 -8 7 -9 -3 -14 -9 -12 -13 6 -9
-177 -7 -192 2 -8 6 -9 14 -2 27 7 13 7 21 0 25 -5 3 -10 11 -10 16 0 6 5 7
11 3 7 -4 7 1 -1 16 -8 15 -8 20 -1 16 6 -4 11 -2 11 3 0 6 -4 11 -9 11 -10 0
-9 19 2 37 4 6 3 14 -3 18 -5 3 -10 11 -10 16 0 6 5 7 11 3 7 -4 7 1 -1 16 -8
15 -8 20 -1 16 6 -4 11 -2 11 3 0 6 -4 11 -9 11 -10 0 -9 19 2 38 5 6 4 12 0
12 -5 0 -9 9 -9 19 0 11 4 17 8 15 4 -3 8 0 8 5 0 6 -4 11 -8 11 -5 0 -8 15
-8 34 1 19 4 32 9 29 4 -2 7 0 7 5 0 5 14 9 31 10 44 1 89 12 89 22 0 5 9 12
21 15 11 4 18 9 15 12 -3 3 2 12 10 20 8 9 13 21 10 28 -3 8 1 15 7 18 8 3 12
31 12 81 0 42 2 76 5 76 6 0 8 14 12 82 2 27 7 48 11 48 5 0 6 4 2 9 -3 5 -1
12 5 16 6 4 8 10 6 14 -3 4 4 18 15 29 11 12 16 22 12 22 -4 0 1 7 12 16 11 8
19 17 18 19 -2 3 -1 5 2 5 3 0 18 13 33 29 27 29 122 88 122 75 0 -4 6 -1 13
5 8 6 17 8 20 5 3 -3 12 -2 19 2 15 10 33 14 71 16 15 0 27 5 27 10 0 13 12
10 33 -9z"/>
</g>
</svg>
